<?xml version="1.0" encoding="utf-8"?>
<!-- Generator: Adobe Illustrator 19.0.0, SVG Export Plug-In . SVG Version: 6.00 Build 0)  -->
<svg version="1.1" id="Layer_1" xmlns="http://www.w3.org/2000/svg" xmlns:xlink="http://www.w3.org/1999/xlink" x="0px" y="0px"
	 viewBox="0 0 100 35" style="enable-background:new 0 0 100 35;" xml:space="preserve">
<style type="text/css">
	.st0{fill:#EA262B;}
	.st1{fill:#FFFFFF;}
</style>
<g id="XMLID_14_">
	<rect id="XMLID_30_" x="0" y="0" class="st0" width="100" height="34.9"/>
	<path id="XMLID_29_" class="st1" d="M73.8,6.4c1.5,0,3,0,4.4,0c-0.2,1.3-0.4,2.3-0.6,3.6c1.3,0,2.6,0,3.9,0
		c-0.2,1.1-0.4,2.3-0.6,3.4c-1.3,0-2.6,0-3.9,0c-0.2,1.4-0.6,3.1-0.8,4.5c-0.1,0.8-0.3,1.6-0.2,2.4c0.1,0.5,0.4,0.9,0.9,1
		c0.8,0.1,1.6-0.1,2.4-0.3c0.1,1,0.3,2.1,0.4,3.1c-1.5,0.6-3.2,0.7-4.8,0.5c-1.1-0.2-2.2-0.7-2.8-1.7c-0.7-1.2-0.6-2.6-0.4-3.9
		c0.3-1.7,0.7-3.8,1-5.6c-0.9,0-1.8,0-2.6,0c0.2-1.1,0.4-2.3,0.6-3.4c0.9,0,1.7,0,2.6,0C73.4,8.7,73.5,7.7,73.8,6.4z"/>
	<g id="XMLID_25_">
		<path id="XMLID_26_" class="st1" d="M41.6,10.6c1.4-0.5,2.9-0.7,4.3-0.6c1.4,0.1,2.9,0.5,4,1.4c1,0.9,1.6,2.2,1.7,3.6
			c0.1,1.3,0,2.7-0.3,3.9c-3.5,0-7,0-10.5,0c-0.1,0.6,0,1.3,0.4,1.7c0.5,0.5,1.2,0.7,1.8,0.7c1.8,0.1,3.5-0.3,5-1.2
			c0.6,0.8,1.2,1.7,1.8,2.6c-1.9,1.4-4.3,1.9-6.7,1.9c-1.7,0-3.5-0.2-4.8-1.3c-1.3-0.9-1.9-2.5-2-4c-0.1-1.8,0.3-3.5,1.1-5.1
			C38.4,12.6,39.8,11.3,41.6,10.6z M42.5,14.1c-0.6,0.5-1,1.3-1.2,2c2.1,0,4.1,0,6.2,0c0.1-0.7,0-1.4-0.4-2
			c-0.4-0.5-1.1-0.8-1.7-0.9C44.4,13.2,43.3,13.4,42.5,14.1z"/>
	</g>
	<path id="XMLID_24_" class="st1" d="M58.7,11.9c0.9-1,2.1-1.7,3.4-1.8c1.4-0.1,2.9,0.1,4.1,0.9c1,0.7,1.6,1.9,1.7,3
		c0.3,1.6-0.1,3.1-0.4,4.7c-0.3,1.9-0.7,4.1-1.1,6c-1.5,0-3,0-4.4,0c0.4-2.2,0.9-4.9,1.3-7.1c0.2-1,0.4-2,0-3
		c-0.2-0.6-0.8-1-1.4-1.1c-1-0.2-2.1,0-2.8,0.7C58.3,14.9,58,16,57.8,17c-0.4,2.4-0.9,5.2-1.3,7.6c-1.5,0-2.9,0-4.4,0
		c0.8-4.6,1.8-10,2.6-14.6c1.5,0,3,0,4.4,0C59,10.5,58.8,11.4,58.7,11.9z"/>
	<path id="XMLID_19_" class="st1" d="M84.6,23c0,0.7-0.6,1.3-1.3,1.3c-0.7,0-1.3-0.6-1.3-1.3c0-0.7,0.6-1.2,1.3-1.2
		C84,21.8,84.6,22.3,84.6,23z M82.3,23c0,0.6,0.4,1,1,1c0.5,0,1-0.4,1-1c0-0.6-0.4-1-1-1C82.7,22,82.3,22.5,82.3,23z M83.1,23.7
		h-0.3v-1.2c0.1,0,0.3,0,0.5,0c0.2,0,0.3,0,0.4,0.1c0.1,0.1,0.1,0.2,0.1,0.3c0,0.1-0.1,0.2-0.3,0.3v0c0.1,0,0.2,0.1,0.2,0.3
		c0,0.2,0.1,0.3,0.1,0.3h-0.3c0,0-0.1-0.2-0.1-0.3c0-0.1-0.1-0.2-0.3-0.2h-0.1V23.7z M83.1,23h0.1c0.2,0,0.3-0.1,0.3-0.2
		c0-0.1-0.1-0.2-0.3-0.2c-0.1,0-0.1,0-0.2,0V23z"/>
	<path id="XMLID_15_" class="st1" d="M33.7,11.9c-1.3-1.3-3.1-1.8-4.8-1.9c0.2-1.2,0.4-2.4,0.6-3.6h-4.4c-0.2,1.2-0.4,2.4-0.6,3.6
		c-2.6,0.1-5.3,1-7,3.1c-1.3,1.5-1.9,3.4-2,5.3c-0.1,1.6,0.4,3.3,1.6,4.4c1.3,1.3,3.1,1.8,4.8,1.9c-0.2,1.3-0.5,2.6-0.7,3.9h4.4
		c0.2-1.3,0.5-2.6,0.7-3.9c2.4-0.1,5-0.9,6.7-2.7c1.5-1.5,2.3-3.7,2.3-5.9C35.4,14.6,34.9,13,33.7,11.9z M22.5,21.3
		c-0.8,0-1.5-0.4-2-1c-0.6-0.8-0.7-1.8-0.5-2.7c0.2-1.3,0.8-2.7,1.9-3.5c0.6-0.4,1.3-0.6,2-0.7C23.4,16,22.9,18.7,22.5,21.3z
		 M30.9,16.7c-0.1,1.3-0.5,2.6-1.5,3.5c-0.7,0.7-1.6,1-2.5,1.1c0.5-2.6,0.9-5.3,1.4-7.9c0.7,0,1.5,0.3,1.9,0.9
		C30.8,15,30.9,15.9,30.9,16.7z"/>
</g>
</svg>
