<?xml version="1.0" encoding="utf-8"?>
<!-- Generator: Adobe Illustrator 21.0.2, SVG Export Plug-In . SVG Version: 6.00 Build 0)  -->
<svg version="1.1" id="Layer_1" xmlns="http://www.w3.org/2000/svg" xmlns:xlink="http://www.w3.org/1999/xlink" x="0px" y="0px"
	 viewBox="0 0 256 158" style="enable-background:new 0 0 256 158;" xml:space="preserve">
<style type="text/css">
	.st0{fill:url(#SVGID_1_);}
	.st1{fill:#FFFFFF;}
</style>
<linearGradient id="SVGID_1_" gradientUnits="userSpaceOnUse" x1="-49.9874" y1="-69.0783" x2="278.9123" y2="143.6753">
	<stop  offset="0" style="stop-color:#22C1C3"/>
	<stop  offset="1" style="stop-color:#FDBB2D"/>
</linearGradient>
<path class="st0" d="M172.4,4c-19.3,0-35.5,13.6-39.6,31.7c-2.5-1.1-4.8-1.5-6.6-1.5c-2.8,0-5.2,0.8-7.3,1.8
	c-4-18.3-20.2-32-39.7-32C56.8,4,38.6,22.2,38.6,44.7s18.2,40.7,40.6,40.7c21.6,0,39.2-17,40.4-38.3c1.3-1.1,3.8-3,6.6-3
	c1.9,0,3.9,1.2,5.8,3.1c1.3,21.3,18.8,38.3,40.4,38.3c22.4,0,40.7-18.2,40.7-40.7S194.9,4,172.4,4z M79.2,75.5
	c-17,0-30.9-13.9-30.9-30.9s13.9-30.9,30.9-30.9s30.9,13.9,30.9,30.9S96.3,75.5,79.2,75.5z M172.4,75.5c-17,0-30.9-13.9-30.9-30.9
	s13.9-30.9,30.9-30.9c17,0,30.9,13.9,30.9,30.9S189.5,75.5,172.4,75.5z"/>
<g>
	<path class="st1" d="M3.7,111.8c-0.6-0.6-0.9-1.3-0.9-2.1c0-0.8,0.3-1.5,0.9-2.1c0.6-0.6,1.3-0.9,2.2-0.9c0.9,0,1.6,0.3,2.2,0.9
		c0.6,0.6,0.9,1.2,0.9,2.1c0,0.9-0.3,1.6-0.9,2.2c-0.6,0.6-1.3,0.9-2.2,0.9C5.1,112.7,4.3,112.4,3.7,111.8z M3.7,117.6h4.6V143H3.7
		V117.6z"/>
	<path class="st1" d="M38.3,120.1c1.9,1.9,2.9,4.6,2.9,8.2V143h-4.6v-14.1c0-2.5-0.6-4.3-1.8-5.6s-2.9-1.9-5.1-1.9
		c-2.5,0-4.5,0.7-5.9,2.2c-1.5,1.5-2.2,3.5-2.2,6.3V143h-4.6v-25.4h4.4v3.8c0.9-1.3,2.2-2.3,3.8-3c1.6-0.7,3.4-1.1,5.4-1.1
		C33.9,117.3,36.4,118.3,38.3,120.1z"/>
	<path class="st1" d="M51,142.4c-1.9-0.6-3.4-1.3-4.5-2.1l1.9-3.7c1.1,0.8,2.5,1.4,4.1,1.9c1.6,0.5,3.2,0.7,4.8,0.7
		c4,0,6.1-1.1,6.1-3.4c0-0.8-0.3-1.4-0.8-1.8c-0.5-0.4-1.2-0.8-2-1c-0.8-0.2-2-0.4-3.5-0.7c-2-0.3-3.7-0.7-5-1.1
		c-1.3-0.4-2.4-1.1-3.3-2.1c-0.9-1-1.4-2.4-1.4-4.2c0-2.3,1-4.1,2.9-5.5c1.9-1.4,4.5-2.1,7.7-2.1c1.7,0,3.4,0.2,5.1,0.6
		c1.7,0.4,3.1,1,4.2,1.7l-2,3.7c-2.1-1.3-4.5-2-7.3-2c-2,0-3.4,0.3-4.5,1c-1,0.6-1.5,1.5-1.5,2.5c0,0.8,0.3,1.5,0.9,2
		c0.6,0.5,1.3,0.8,2.1,1.1c0.8,0.2,2,0.5,3.6,0.8c2,0.4,3.7,0.7,5,1.1c1.3,0.4,2.4,1.1,3.2,2c0.9,1,1.3,2.3,1.3,4c0,2.3-1,4.1-3,5.5
		c-2,1.4-4.7,2-8,2C55,143.3,53,143,51,142.4z"/>
	<path class="st1" d="M93.9,119c1.9,1.1,3.5,2.6,4.6,4.6c1.1,1.9,1.7,4.2,1.7,6.8c0,2.6-0.5,4.8-1.7,6.8c-1.1,2-2.6,3.5-4.6,4.6
		c-2,1.1-4.2,1.6-6.6,1.6c-1.8,0-3.5-0.4-5-1.1c-1.5-0.7-2.8-1.7-3.9-3.1v13.2h-4.6v-34.8h4.4v4c1-1.4,2.3-2.5,3.9-3.2
		c1.6-0.7,3.3-1.1,5.2-1.1C89.7,117.3,91.9,117.9,93.9,119z M91.3,138.1c1.3-0.8,2.3-1.8,3.1-3.2c0.8-1.4,1.1-2.9,1.1-4.7
		c0-1.8-0.4-3.3-1.1-4.7c-0.8-1.4-1.8-2.4-3.1-3.1s-2.8-1.1-4.4-1.1c-1.6,0-3.1,0.4-4.4,1.1c-1.3,0.8-2.3,1.8-3.1,3.1
		c-0.8,1.3-1.1,2.9-1.1,4.7c0,1.8,0.4,3.3,1.1,4.7s1.8,2.4,3.1,3.2c1.3,0.8,2.8,1.1,4.4,1.1C88.5,139.3,90,138.9,91.3,138.1z"/>
	<path class="st1" d="M106.6,111.8c-0.6-0.6-0.9-1.3-0.9-2.1c0-0.8,0.3-1.5,0.9-2.1c0.6-0.6,1.3-0.9,2.2-0.9c0.9,0,1.6,0.3,2.2,0.9
		c0.6,0.6,0.9,1.2,0.9,2.1c0,0.9-0.3,1.6-0.9,2.2c-0.6,0.6-1.3,0.9-2.2,0.9C107.9,112.7,107.2,112.4,106.6,111.8z M106.5,117.6h4.6
		V143h-4.6V117.6z"/>
	<path class="st1" d="M127.9,118.5c1.6-0.8,3.5-1.2,5.7-1.2v4.5c-0.3,0-0.6-0.1-1.1-0.1c-2.5,0-4.5,0.8-5.9,2.2
		c-1.4,1.5-2.1,3.6-2.1,6.4V143h-4.6v-25.4h4.4v4.3C125.1,120.4,126.3,119.2,127.9,118.5z"/>
	<path class="st1" d="M156.6,119.9c1.9,1.7,2.8,4.3,2.8,7.7V143H155v-3.4c-0.8,1.2-1.9,2.1-3.3,2.7c-1.4,0.6-3.1,0.9-5.1,0.9
		c-2.8,0-5.1-0.7-6.8-2.1c-1.7-1.4-2.6-3.2-2.6-5.4c0-2.2,0.8-4,2.4-5.4c1.6-1.3,4.2-2,7.8-2h7.3v-0.9c0-2-0.6-3.5-1.7-4.6
		c-1.1-1.1-2.8-1.6-5.1-1.6c-1.5,0-3,0.3-4.4,0.8c-1.4,0.5-2.7,1.2-3.7,2l-1.9-3.4c1.3-1.1,2.9-1.9,4.7-2.4c1.8-0.6,3.8-0.8,5.8-0.8
		C152,117.3,154.7,118.2,156.6,119.9z M152,138.6c1.3-0.8,2.2-1.9,2.8-3.3v-3.6h-7.1c-3.9,0-5.9,1.3-5.9,3.9c0,1.3,0.5,2.3,1.5,3
		c1,0.7,2.4,1.1,4.1,1.1C149.2,139.7,150.7,139.3,152,138.6z"/>
	<path class="st1" d="M188,119c2,1.1,3.5,2.6,4.6,4.6c1.1,1.9,1.7,4.2,1.7,6.8c0,2.6-0.6,4.8-1.7,6.8c-1.1,2-2.6,3.5-4.6,4.6
		c-1.9,1.1-4.2,1.6-6.6,1.6c-1.9,0-3.6-0.4-5.2-1.1c-1.6-0.7-2.9-1.8-3.9-3.2v4h-4.4v-35.6h4.6v14c1-1.3,2.3-2.4,3.8-3.1
		c1.5-0.7,3.2-1,5-1C183.9,117.3,186.1,117.9,188,119z M185.4,138.1c1.3-0.8,2.3-1.8,3.1-3.2c0.8-1.4,1.1-2.9,1.1-4.7
		c0-1.8-0.4-3.3-1.1-4.7c-0.8-1.4-1.8-2.4-3.1-3.1c-1.3-0.7-2.8-1.1-4.4-1.1c-1.6,0-3.1,0.4-4.4,1.1s-2.3,1.8-3.1,3.1
		c-0.7,1.4-1.1,2.9-1.1,4.7c0,1.8,0.4,3.3,1.1,4.7c0.7,1.4,1.8,2.4,3.1,3.2s2.8,1.1,4.4,1.1C182.7,139.3,184.1,138.9,185.4,138.1z"
		/>
	<path class="st1" d="M204.7,141.6c-2-1.1-3.6-2.7-4.7-4.6c-1.1-2-1.7-4.2-1.7-6.7s0.6-4.7,1.7-6.7c1.1-2,2.7-3.5,4.7-4.6
		c2-1.1,4.3-1.7,6.8-1.7s4.8,0.6,6.8,1.7c2,1.1,3.6,2.6,4.7,4.6c1.1,2,1.7,4.2,1.7,6.7s-0.6,4.7-1.7,6.7c-1.1,2-2.7,3.5-4.7,4.6
		c-2,1.1-4.3,1.7-6.8,1.7S206.7,142.7,204.7,141.6z M215.9,138.1c1.3-0.8,2.3-1.8,3.1-3.2c0.7-1.4,1.1-2.9,1.1-4.7
		c0-1.8-0.4-3.3-1.1-4.7c-0.7-1.4-1.8-2.4-3.1-3.1c-1.3-0.7-2.7-1.1-4.4-1.1c-1.6,0-3.1,0.4-4.4,1.1s-2.3,1.8-3.1,3.1
		c-0.8,1.4-1.1,2.9-1.1,4.7c0,1.8,0.4,3.3,1.1,4.7c0.8,1.4,1.8,2.4,3.1,3.2s2.8,1.1,4.4,1.1C213.2,139.3,214.6,138.9,215.9,138.1z"
		/>
	<path class="st1" d="M246.5,143l-7.3-9.7l-7.4,9.7h-5.1l10-13l-9.6-12.4h5.1l7,9.2l7-9.2h5l-9.6,12.4l10.1,13H246.5z"/>
</g>
</svg>
