<?xml version="1.0" encoding="utf-8"?>
<!-- Generator: Adobe Illustrator 19.0.0, SVG Export Plug-In . SVG Version: 6.00 Build 0)  -->
<svg version="1.1" id="Layer_1" xmlns="http://www.w3.org/2000/svg" xmlns:xlink="http://www.w3.org/1999/xlink" x="0px" y="0px"
	 viewBox="0 0 32 32" style="enable-background:new 0 0 32 32;" xml:space="preserve">
<g>
	<path d="M31.9,10.8c0-4.7-3.8-8.6-8.6-8.6c-3.1,0-5.8,1.6-7.3,4.1c-1.5-2.5-4.2-4.1-7.3-4.1c-4.7,0-8.6,3.8-8.6,8.6
		c0,2.6,1.1,4.9,2.9,6.5l12.2,12.2c0.2,0.2,0.5,0.3,0.8,0.3c0.3,0,0.6-0.1,0.8-0.3L29,17.3C30.8,15.7,31.9,13.4,31.9,10.8L31.9,10.8
		z M31.9,10.8"/>
</g>
</svg>
