<?xml version="1.0" encoding="utf-8"?>
<!-- Generator: Adobe Illustrator 19.0.0, SVG Export Plug-In . SVG Version: 6.00 Build 0)  -->
<svg version="1.1" id="Layer_1" xmlns="http://www.w3.org/2000/svg" xmlns:xlink="http://www.w3.org/1999/xlink" x="0px" y="0px"
	 viewBox="0 0 32 32" style="enable-background:new 0 0 32 32;" xml:space="preserve">
<g>
	<g>
		<path d="M24.8,15.3L10.2,0.7C10,0.4,9.7,0.3,9.5,0.3C9.2,0.3,9,0.4,8.7,0.7L7.2,2.2C7,2.4,6.9,2.7,6.9,2.9c0,0.3,0.1,0.5,0.3,0.7
			L19.5,16L7.2,28.3c-0.2,0.2-0.3,0.4-0.3,0.7c0,0.3,0.1,0.5,0.3,0.7l1.6,1.6c0.2,0.2,0.4,0.3,0.7,0.3c0.3,0,0.5-0.1,0.7-0.3
			l14.6-14.6c0.2-0.2,0.3-0.4,0.3-0.7C25.1,15.7,25,15.5,24.8,15.3L24.8,15.3z M24.8,15.3"/>
	</g>
</g>
</svg>
