<?xml version="1.0" encoding="utf-8"?>
<!-- Generator: Adobe Illustrator 19.0.0, SVG Export Plug-In . SVG Version: 6.00 Build 0)  -->
<svg version="1.1" id="Layer_1" xmlns="http://www.w3.org/2000/svg" xmlns:xlink="http://www.w3.org/1999/xlink" x="0px" y="0px"
	 viewBox="0 0 32 32" style="enable-background:new 0 0 32 32;" xml:space="preserve">
<g>
	<path d="M2.1,6.4h27.9c1,0,1.8-0.8,1.8-1.9c0-1-0.8-1.9-1.8-1.9H2.1c-1,0-1.8,0.8-1.8,1.9C0.2,5.6,1.1,6.4,2.1,6.4L2.1,6.4z
		 M29.9,14.1H2.1c-1,0-1.8,0.8-1.8,1.9c0,1,0.8,1.9,1.8,1.9h27.9c1,0,1.8-0.8,1.8-1.9C31.8,15,30.9,14.1,29.9,14.1L29.9,14.1z
		 M29.9,25.5H2.1c-1,0-1.8,0.8-1.8,1.9c0,1,0.8,1.9,1.8,1.9h27.9c1,0,1.8-0.8,1.8-1.9C31.8,26.4,30.9,25.5,29.9,25.5L29.9,25.5z
		 M29.9,25.5"/>
</g>
</svg>
