<?xml version="1.0" encoding="utf-8"?>
<!-- Generator: Adobe Illustrator 19.0.0, SVG Export Plug-In . SVG Version: 6.00 Build 0)  -->
<svg version="1.1" id="Layer_1" xmlns="http://www.w3.org/2000/svg" xmlns:xlink="http://www.w3.org/1999/xlink" x="0px" y="0px"
	 viewBox="0 0 32 32" style="enable-background:new 0 0 32 32;" xml:space="preserve">
<g>
	<path d="M16,30c-0.4,0-0.9-0.2-1.2-0.5c-1.3-1.1-2.5-2.2-3.6-3.1l0,0c-3.2-2.7-5.9-5.1-7.8-7.4c-2.1-2.6-3.1-5-3.1-7.7
		c0-2.6,0.9-5,2.5-6.7C4.4,2.9,6.6,2,9,2c1.8,0,3.5,0.6,5,1.7c0.7,0.6,1.4,1.3,2,2.1c0.6-0.8,1.3-1.5,2-2.1C19.5,2.5,21.1,2,23,2
		c2.4,0,4.7,1,6.3,2.7c1.6,1.8,2.5,4.1,2.5,6.7c0,2.7-1,5.1-3.1,7.7c-1.9,2.3-4.7,4.6-7.8,7.4c-1.1,0.9-2.3,2-3.6,3.1
		C16.9,29.9,16.4,30,16,30L16,30z M9,3.8c-1.9,0-3.7,0.8-5,2.2c-1.3,1.4-2,3.4-2,5.5c0,2.2,0.8,4.3,2.7,6.5c1.8,2.2,4.5,4.5,7.6,7.1
		l0,0c1.1,0.9,2.3,2,3.6,3.1c1.3-1.1,2.5-2.2,3.6-3.1c3.1-2.7,5.8-4.9,7.6-7.1c1.9-2.3,2.7-4.3,2.7-6.5c0-2.1-0.7-4.1-2-5.5
		c-1.3-1.4-3-2.2-5-2.2c-1.4,0-2.7,0.4-3.8,1.3c-1,0.8-1.7,1.8-2.1,2.5c-0.2,0.4-0.6,0.6-1,0.6c-0.4,0-0.8-0.2-1-0.6
		c-0.4-0.7-1.1-1.7-2.1-2.5C11.7,4.2,10.4,3.8,9,3.8L9,3.8z M9,3.8"/>
</g>
</svg>
