<?xml version="1.0" encoding="utf-8"?>
<!-- Generator: Adobe Illustrator 19.0.0, SVG Export Plug-In . SVG Version: 6.00 Build 0)  -->
<svg version="1.1" id="Layer_1" xmlns="http://www.w3.org/2000/svg" xmlns:xlink="http://www.w3.org/1999/xlink" x="0px" y="0px"
	 viewBox="0 0 32 32" style="enable-background:new 0 0 32 32;" xml:space="preserve">
<g id="XMLID_6_">
	<path id="XMLID_7_" d="M16,5.2C8.8,5.2,2.6,9.6,0.1,16C2.6,22.4,8.8,26.8,16,26.8S29.4,22.4,31.9,16C29.4,9.6,23.2,5.2,16,5.2
		L16,5.2z M16,23.2c-4,0-7.2-3.2-7.2-7.2c0-4,3.2-7.2,7.2-7.2c4,0,7.2,3.2,7.2,7.2C23.2,20,20,23.2,16,23.2L16,23.2z M16,11.7
		c-2.5,0-4.3,1.9-4.3,4.3c0,2.5,1.9,4.3,4.3,4.3c2.5,0,4.3-1.9,4.3-4.3C20.3,13.5,18.5,11.7,16,11.7L16,11.7z M16,11.7"/>
</g>
</svg>
