<?xml version="1.0" encoding="utf-8"?>
<!-- Generator: Adobe Illustrator 19.0.0, SVG Export Plug-In . SVG Version: 6.00 Build 0)  -->
<svg version="1.1" id="Layer_1" xmlns="http://www.w3.org/2000/svg" xmlns:xlink="http://www.w3.org/1999/xlink" x="0px" y="0px"
	 viewBox="0 0 32 32" style="enable-background:new 0 0 32 32;" xml:space="preserve">
<style type="text/css">
	.st0{clip-path:url(#XMLID_24_);}
</style>
<g id="XMLID_5_">
	<path id="XMLID_50_" d="M11.9,17.6c0-0.4-0.3-0.7-0.7-0.7H8.8c-0.4,0-0.7,0.3-0.7,0.7V20c0,0.4,0.3,0.7,0.7,0.7h2.4
		c0.4,0,0.7-0.3,0.7-0.7V17.6z M11.9,17.6"/>
	<path id="XMLID_47_" d="M17.9,17.6c0-0.4-0.3-0.7-0.7-0.7h-2.4c-0.4,0-0.7,0.3-0.7,0.7V20c0,0.4,0.3,0.7,0.7,0.7h2.4
		c0.4,0,0.7-0.3,0.7-0.7V17.6z M17.9,17.6"/>
	<path id="XMLID_44_" d="M23.9,17.6c0-0.4-0.3-0.7-0.7-0.7h-2.4c-0.4,0-0.7,0.3-0.7,0.7V20c0,0.4,0.3,0.7,0.7,0.7h2.4
		c0.4,0,0.7-0.3,0.7-0.7V17.6z M23.9,17.6"/>
	<path id="XMLID_41_" d="M11.9,23.6c0-0.4-0.3-0.7-0.7-0.7H8.8c-0.4,0-0.7,0.3-0.7,0.7V26c0,0.4,0.3,0.7,0.7,0.7h2.4
		c0.4,0,0.7-0.3,0.7-0.7V23.6z M11.9,23.6"/>
	<path id="XMLID_38_" d="M17.9,23.6c0-0.4-0.3-0.7-0.7-0.7h-2.4c-0.4,0-0.7,0.3-0.7,0.7V26c0,0.4,0.3,0.7,0.7,0.7h2.4
		c0.4,0,0.7-0.3,0.7-0.7V23.6z M17.9,23.6"/>
	<g id="XMLID_29_">
		<defs>
			<rect id="XMLID_8_" x="1.1" y="0.8" width="29.8" height="30.5"/>
		</defs>
		<clipPath id="XMLID_24_">
			<use xlink:href="#XMLID_8_"  style="overflow:visible;"/>
		</clipPath>
		<path id="XMLID_35_" class="st0" d="M23.9,23.6c0-0.4-0.3-0.7-0.7-0.7h-2.4c-0.4,0-0.7,0.3-0.7,0.7V26c0,0.4,0.3,0.7,0.7,0.7h2.4
			c0.4,0,0.7-0.3,0.7-0.7V23.6z M23.9,23.6"/>
		<path id="XMLID_31_" class="st0" d="M28.2,4.1v3.7c0,1.7-1.4,3-3,3h-1.9c-1.7,0-3-1.3-3-3V4.1h-8.6v3.7c0,1.7-1.4,3-3,3H6.8
			c-1.7,0-3-1.3-3-3V4.1c-1.5,0-2.7,1.2-2.7,2.7v21.6c0,1.5,1.2,2.7,2.7,2.7h24.3c1.5,0,2.7-1.2,2.7-2.7V6.9
			C30.9,5.4,29.7,4.2,28.2,4.1L28.2,4.1z M27.4,27.1c0,0.7-0.5,1.2-1.2,1.2H5.8c-0.7,0-1.2-0.5-1.2-1.2V16c0-0.7,0.5-1.2,1.2-1.2
			h20.4c0.7,0,1.2,0.5,1.2,1.2V27.1z M27.4,27.1"/>
	</g>
	<path id="XMLID_26_" d="M6.8,8.9h1.9c0.6,0,1-0.5,1-1v-6c0-0.6-0.5-1-1-1H6.8c-0.6,0-1,0.5-1,1v6C5.7,8.4,6.2,8.9,6.8,8.9L6.8,8.9z
		 M6.8,8.9"/>
	<path id="XMLID_6_" d="M23.3,8.9h1.9c0.6,0,1-0.5,1-1v-6c0-0.6-0.5-1-1-1h-1.9c-0.6,0-1,0.5-1,1v6C22.3,8.4,22.7,8.9,23.3,8.9
		L23.3,8.9z M23.3,8.9"/>
</g>
</svg>
