<?xml version="1.0" encoding="utf-8"?>
<!-- Generator: Adobe Illustrator 19.0.0, SVG Export Plug-In . SVG Version: 6.00 Build 0)  -->
<svg version="1.1" id="Layer_1" xmlns="http://www.w3.org/2000/svg" xmlns:xlink="http://www.w3.org/1999/xlink" x="0px" y="0px"
	 viewBox="0 0 32 32" style="enable-background:new 0 0 32 32;" xml:space="preserve">
<g>
	<g>
		<path d="M7.2,15.3C7,15.5,6.9,15.7,6.9,16c0,0.3,0.1,0.5,0.3,0.7l14.6,14.6c0.2,0.2,0.4,0.3,0.7,0.3c0.3,0,0.5-0.1,0.7-0.3
			l1.6-1.6c0.2-0.2,0.3-0.4,0.3-0.7c0-0.3-0.1-0.5-0.3-0.7L12.5,16L24.8,3.6c0.2-0.2,0.3-0.4,0.3-0.7c0-0.2-0.1-0.5-0.3-0.7
			l-1.5-1.5c-0.3-0.3-0.5-0.4-0.8-0.4c-0.2,0-0.5,0.1-0.7,0.4L7.2,15.3L7.2,15.3z"/>
	</g>
</g>
</svg>
