<?xml version="1.0" encoding="utf-8"?>
<!-- Generator: Adobe Illustrator 19.0.0, SVG Export Plug-In . SVG Version: 6.00 Build 0)  -->
<svg version="1.1" id="Layer_1" xmlns="http://www.w3.org/2000/svg" xmlns:xlink="http://www.w3.org/1999/xlink" x="0px" y="0px"
	 viewBox="0 0 32 32" style="enable-background:new 0 0 32 32;" xml:space="preserve">
<style type="text/css">
	.st0{fill-rule:evenodd;clip-rule:evenodd;}
</style>
<g>
	<path class="st0" d="M12.1,0.2C5.5,0.2,0.2,5.5,0.2,12.1c0,6.5,5.3,11.8,11.9,11.8c2.7,0,5.3-0.9,7.3-2.5l10,10
		c0.3,0.3,0.7,0.4,1,0.4c0.4,0,0.8-0.1,1-0.4c0.3-0.3,0.4-0.7,0.4-1.1c0-0.4-0.1-0.8-0.4-1l-10-10c1.6-2,2.5-4.5,2.5-7.3
		C23.9,5.5,18.6,0.2,12.1,0.2L12.1,0.2z M12.1,20.9c-4.9,0-8.9-4-8.9-8.9c0-4.9,4-8.9,8.9-8.9s8.9,4,8.9,8.9
		C20.9,16.9,17,20.9,12.1,20.9L12.1,20.9z M12.1,20.9"/>
</g>
</svg>
