<?xml version="1.0" encoding="utf-8"?>
<!-- Generator: Adobe Illustrator 19.0.0, SVG Export Plug-In . SVG Version: 6.00 Build 0)  -->
<svg version="1.1" id="Layer_1" xmlns="http://www.w3.org/2000/svg" xmlns:xlink="http://www.w3.org/1999/xlink" x="0px" y="0px"
	 viewBox="0 0 32 32" style="enable-background:new 0 0 32 32;" xml:space="preserve">
<style type="text/css">
	.st0{fill:#010101;}
</style>
<g id="XMLID_7_">
	<path id="XMLID_8_" class="st0" d="M30.1,17.9H18.8c-0.5,0-0.9,0.4-0.9,0.9v11.3c0,0.5,0.4,0.9,0.9,0.9h11.3c0.5,0,0.9-0.4,0.9-0.9
		V18.8C31,18.3,30.6,17.9,30.1,17.9L30.1,17.9z M30.1,1H18.8c-0.5,0-0.9,0.4-0.9,0.9v11.3c0,0.5,0.4,0.9,0.9,0.9h11.3
		c0.5,0,0.9-0.4,0.9-0.9V1.9C31,1.4,30.6,1,30.1,1L30.1,1z M13.2,1H1.9C1.4,1,1,1.4,1,1.9v11.3c0,0.5,0.4,0.9,0.9,0.9h11.3
		c0.5,0,0.9-0.4,0.9-0.9V1.9C14.1,1.4,13.7,1,13.2,1L13.2,1z M13.2,17.9H1.9c-0.5,0-0.9,0.4-0.9,0.9v11.3C1,30.6,1.4,31,1.9,31h11.3
		c0.5,0,0.9-0.4,0.9-0.9V18.8C14.1,18.3,13.7,17.9,13.2,17.9L13.2,17.9z M13.2,17.9"/>
</g>
</svg>
