<?xml version="1.0" encoding="utf-8"?>
<!-- Generator: Adobe Illustrator 19.0.0, SVG Export Plug-In . SVG Version: 6.00 Build 0)  -->
<svg version="1.1" id="Layer_1" xmlns="http://www.w3.org/2000/svg" xmlns:xlink="http://www.w3.org/1999/xlink" x="0px" y="0px"
	 viewBox="0 0 32 32" style="enable-background:new 0 0 32 32;" xml:space="preserve">
<path id="XMLID_6_" d="M31,12.2l-0.1-8.1c-0.1-1.6-1.5-2.9-3.2-2.9L19.2,1c-1.1,0-2.2,0.4-3,1.2L1.9,16.5c-1.2,1.2-1.2,3,0,4.2
	l9.5,9.5c1.2,1.2,3,1.2,4.2,0l14.3-14.3c0.4-0.4,0.8-0.9,0.9-1.4C31,13.5,31,12.2,31,12.2z M26.4,8c-1.2,0-2.2-1-2.2-2.2
	c0-1.2,1-2.2,2.2-2.2s2.2,1,2.2,2.2C28.6,7,27.6,8,26.4,8z"/>
</svg>
