<?xml version="1.0" encoding="utf-8"?>
<!-- Generator: Adobe Illustrator 21.0.2, SVG Export Plug-In . SVG Version: 6.00 Build 0)  -->
<svg version="1.1" id="Layer_1" xmlns="http://www.w3.org/2000/svg" xmlns:xlink="http://www.w3.org/1999/xlink" x="0px" y="0px"
	 viewBox="0 0 32 32" style="enable-background:new 0 0 32 32;" xml:space="preserve">
<g>
	<path d="M30.8,15.3L16.2,0.7c-0.2-0.2-0.4-0.3-0.7-0.3c-0.3,0-0.5,0.1-0.7,0.3l-1.6,1.6C13,2.5,12.9,2.7,12.9,3
		c0,0.3,0.1,0.5,0.3,0.7L25.5,16L13.2,28.3c-0.2,0.2-0.3,0.4-0.3,0.7c0,0.3,0.1,0.5,0.3,0.7l1.6,1.6c0.2,0.2,0.4,0.3,0.7,0.3
		c0.3,0,0.5-0.1,0.7-0.3l14.6-14.6c0.2-0.2,0.3-0.4,0.3-0.7C31.1,15.7,31,15.5,30.8,15.3L30.8,15.3z M30.8,15.3"/>
	<path d="M19.1,16c0-0.3-0.1-0.5-0.3-0.7L4.2,0.7C4,0.5,3.7,0.4,3.5,0.4C3.2,0.4,3,0.5,2.7,0.7L1.2,2.2C1,2.5,0.9,2.7,0.9,3
		c0,0.3,0.1,0.5,0.3,0.7L13.5,16L1.2,28.3C1,28.5,0.9,28.8,0.9,29c0,0.3,0.1,0.5,0.3,0.7l1.6,1.6c0.2,0.2,0.4,0.3,0.7,0.3
		c0.3,0,0.5-0.1,0.7-0.3l14.6-14.6C19,16.5,19.1,16.3,19.1,16L19.1,16z M19.1,16"/>
</g>
</svg>
