<?xml version="1.0" encoding="utf-8"?>
<!-- Generator: Adobe Illustrator 19.0.0, SVG Export Plug-In . SVG Version: 6.00 Build 0)  -->
<svg version="1.1" id="Layer_1" xmlns="http://www.w3.org/2000/svg" xmlns:xlink="http://www.w3.org/1999/xlink" x="0px" y="0px"
	 viewBox="0 0 32 32" style="enable-background:new 0 0 32 32;" xml:space="preserve">
<style type="text/css">
	.st0{fill-rule:evenodd;clip-rule:evenodd;}
</style>
<g>
	<g>
		<path class="st0" d="M19.7,16L31,4.8c1-1,1-2.7,0-3.7c-1-1-2.7-1-3.7,0L16,12.3L4.8,1C3.7,0,2.1,0,1,1c-1,1-1,2.7,0,3.7L12.3,16
			L1,27.2c-1,1-1,2.7,0,3.7c1,1,2.7,1,3.7,0L16,19.7L27.2,31c1,1,2.7,1,3.7,0c1-1,1-2.7,0-3.7L19.7,16z M19.7,16"/>
	</g>
</g>
</svg>
